<svg xmlns="http://www.w3.org/2000/svg" width="264.663" height="308.632" viewBox="0 0 264.663 308.632"><g transform="translate(132.325 154.315)"><g transform="translate(-131.24 -153.209)"><path d="M256.834,74.031c10.765,70.568,6.8,167.273-10.72,217.724-4.7,13.545,23.161,2.377,18.386,20.151a.014.014,0,0,1-.014.011H8.148a.014.014,0,0,1-.014-.011C3.358,294.132,31.217,305.3,26.52,291.755,8.23,239.074,4.716,136.087,17.3,64.927a.014.014,0,0,0-.016-.017c-13.527,1.5-11.7-2.422-11.7-6.616,0-5.793,4.835-23.173,7.709-33.8C21.046,2.278,43.261,10.9,58.177,12.906c14.962,2.007,32.387,3.376,55.058,5.793s57.522-3.695,80.6-5.793c25.043-2.281,44.111-13.5,58.114-2.965,6.3,4.744,4.927,20.755,9.488,33.345,7.253,19.8,9.671,26.047,1,30.38a13.94,13.94,0,0,1-5.611.365Z" transform="translate(-5.5 -5.5)" fill="none" stroke="#513c3c" stroke-miterlimit="10" stroke-width="2.216" fill-rule="evenodd"/><path d="M300.818,312.365s-151.584,33.718-240.239-8.414" transform="translate(-49.484 -243.834)" fill="none" stroke="#513c3c" stroke-miterlimit="10" stroke-width="2.216"/></g></g></svg>